<svg xmlns="http://www.w3.org/2000/svg" width="48" height="48" viewBox="0 0 48 48"><defs><style>.a{fill:#00cece;}.b{fill:#fff;}</style></defs><g transform="translate(9394 10739)"><path class="a" d="M24,0A24,24,0,1,1,0,24,24,24,0,0,1,24,0Z" transform="translate(-9394 -10739)"/><g transform="translate(-9384.179 -10731.248)"><g transform="translate(0 0.012)"><path class="b" d="M27.057,42.718H1.289a1.289,1.289,0,1,0,0,2.578H27.057a1.289,1.289,0,0,0,0-2.578Z" transform="translate(0 -16.951)"/><path class="b" d="M3.958,28.695a1.289,1.289,0,0,0,0,2.578H26.5a1.289,1.289,0,0,0,0-2.578h-.322V17.1H26.5a.644.644,0,1,0,0-1.288H3.958a.644.644,0,0,0,0,1.288H4.28v11.6H3.958ZM23.606,17.1v11.6H19.741V17.1Zm-6.443,0v11.6H13.3V17.1Zm-10.307,0h3.865v11.6H6.856Z" transform="translate(-1.059 -6.278)"/><path class="b" d="M1.289,8.386h25.78a1.289,1.289,0,0,0,.418-2.508L14.7.125a1.291,1.291,0,0,0-1.057,0L.76,5.922a1.288,1.288,0,0,0,.529,2.463Z" transform="translate(0 -0.012)"/></g></g></g></svg>