<svg xmlns="http://www.w3.org/2000/svg" width="48" height="48" viewBox="0 0 48 48"><defs><style>.a{fill:#00cece;}.b{fill:#fff;stroke:#fff;stroke-width:0.5px;}</style></defs><g transform="translate(9394 10739)"><path class="a" d="M24,0A24,24,0,1,1,0,24,24,24,0,0,1,24,0Z" transform="translate(-9394 -10739)"/><g transform="translate(-10085.561 -10762.134)"><g transform="translate(704.404 37.276)"><g transform="translate(0 2.789)"><path class="b" d="M19.99,20.806H2.324A2.3,2.3,0,0,1,0,18.481V7.324A2.3,2.3,0,0,1,2.324,5H19.99a2.3,2.3,0,0,1,2.324,2.324V18.481A2.3,2.3,0,0,1,19.99,20.806ZM2.324,5.93A1.43,1.43,0,0,0,.93,7.324V18.481a1.43,1.43,0,0,0,1.395,1.395H19.99a1.43,1.43,0,0,0,1.395-1.395V7.324A1.43,1.43,0,0,0,19.99,5.93Z" transform="translate(0 -5)"/></g><g transform="translate(7.438 0)"><path class="b" d="M14.973,5.719a.439.439,0,0,1-.465-.465V3.395a.439.439,0,0,0-.465-.465H9.395a.439.439,0,0,0-.465.465v1.86a.465.465,0,1,1-.93,0V3.395A1.43,1.43,0,0,1,9.395,2h4.649a1.43,1.43,0,0,1,1.395,1.395v1.86A.439.439,0,0,1,14.973,5.719Z" transform="translate(-8 -2)"/></g><g transform="translate(0 8.368)"><path class="b" d="M21.849,11.93H.465a.465.465,0,0,1,0-.93H21.849a.465.465,0,0,1,0,.93Z" transform="translate(0 -11)"/></g><g transform="translate(5.579 6.508)"><path class="b" d="M6.465,13.835A.439.439,0,0,1,6,13.37v-3.9a.465.465,0,0,1,.93,0v3.9A.5.5,0,0,1,6.465,13.835Z" transform="translate(-6 -9)"/></g><g transform="translate(15.806 6.508)"><path class="b" d="M17.465,13.835A.439.439,0,0,1,17,13.37v-3.9a.465.465,0,1,1,.93,0v3.9A.5.5,0,0,1,17.465,13.835Z" transform="translate(-17 -9)"/></g></g></g></g></svg>