<svg xmlns="http://www.w3.org/2000/svg" width="28.868" height="19.847" viewBox="0 0 28.868 19.847"><defs><style>.a{fill:#9b9b9b;}</style></defs><path class="a" d="M28.868,84.68V83.157A3.157,3.157,0,0,0,25.711,80H3.157A3.157,3.157,0,0,0,0,83.157V84.68a.282.282,0,0,0,.282.282h28.3A.282.282,0,0,0,28.868,84.68Z" transform="translate(0 -80)"/><path class="a" d="M0,200.282v9.641a3.157,3.157,0,0,0,3.157,3.157H25.711a3.157,3.157,0,0,0,3.157-3.157v-9.641a.282.282,0,0,0-.282-.282H.282A.282.282,0,0,0,0,200.282Zm7.217,7.386a.9.9,0,0,1-.9.9h-.9a.9.9,0,0,1-.9-.9v-.9a.9.9,0,0,1,.9-.9h.9a.9.9,0,0,1,.9.9Z" transform="translate(0 -193.234)"/></svg>