<svg xmlns="http://www.w3.org/2000/svg" width="39.971" height="35.131" viewBox="0 0 39.971 35.131"><defs><style>.a{fill:#ffbb5f;}.b{fill:#ffa429;}.c{fill:#80664d;}.d{fill:#594135;}</style></defs><g transform="translate(0 -31)"><g transform="translate(0 31)"><path class="a" d="M36.458,66.131H3.513A3.512,3.512,0,0,1,.478,60.85l16.472-28.1a3.513,3.513,0,0,1,6.072,0l16.47,28.1a3.512,3.512,0,0,1-3.035,5.281Z" transform="translate(0 -31)"/><path class="b" d="M272.472,66.131a3.512,3.512,0,0,0,3.035-5.281l-16.47-28.1A3.525,3.525,0,0,0,256,31V66.131Z" transform="translate(-236.014 -31)"/></g><g transform="translate(18.815 40.368)"><g transform="translate(0 0)"><path class="c" d="M242.171,165.052A1.17,1.17,0,0,1,241,163.881v-11.71a1.171,1.171,0,1,1,2.342,0v11.71A1.17,1.17,0,0,1,242.171,165.052Z" transform="translate(-241 -151)"/></g><g transform="translate(0.305 15.98)"><ellipse class="c" cx="0.865" cy="1.297" rx="0.865" ry="1.297" transform="translate(0 0)"/></g></g><g transform="translate(19.986 40.368)"><path class="d" d="M257.171,362.171A1.171,1.171,0,0,0,256,361v2.342A1.171,1.171,0,0,0,257.171,362.171Z" transform="translate(-256 -344.606)"/><path class="d" d="M257.171,163.881v-11.71A1.17,1.17,0,0,0,256,151v14.052A1.17,1.17,0,0,0,257.171,163.881Z" transform="translate(-256 -151)"/></g></g></svg>