<svg xmlns="http://www.w3.org/2000/svg" width="28.665" height="28.667" viewBox="0 0 28.665 28.667"><defs><style>.a{fill:#9b9b9b;}</style></defs><g transform="translate(0 0)"><path class="a" d="M350.869,265.614h-7.234a.6.6,0,0,0-.589.49,5.922,5.922,0,0,1-.951,2.3.6.6,0,0,0,.07.763l5.117,5.117a.6.6,0,0,0,.423.175h.026a.6.6,0,0,0,.432-.213,14.254,14.254,0,0,0,3.3-7.983.6.6,0,0,0-.6-.65Z" transform="translate(-322.803 -250.712)"/><path class="a" d="M18.527,19.3a.6.6,0,0,0-.763-.07,5.982,5.982,0,1,1-4.479-10.81.6.6,0,0,0,.49-.589V.6a.6.6,0,0,0-.194-.441A.573.573,0,0,0,13.125,0a14.358,14.358,0,1,0,10.48,25.3.6.6,0,0,0,.038-.881Z" transform="translate(-0.011 0)"/><path class="a" d="M267.168,8.45a6,6,0,0,1,4.792,4.792.6.6,0,0,0,.589.49h7.235a.6.6,0,0,0,.6-.65A14.312,14.312,0,0,0,267.328.031a.6.6,0,0,0-.65.6V7.862A.6.6,0,0,0,267.168,8.45Z" transform="translate(-251.717 -0.027)"/></g></svg>