<svg xmlns="http://www.w3.org/2000/svg" width="48" height="48" viewBox="0 0 48 48"><defs><style>.a{fill:#00cece;}.b{fill:#fff;}</style></defs><g transform="translate(9394 10739)"><path class="a" d="M24,0A24,24,0,1,1,0,24,24,24,0,0,1,24,0Z" transform="translate(-9394 -10739)"/><g transform="translate(-9381.668 -10803.021)"><path class="b" d="M23.335,83.783V82.552A2.552,2.552,0,0,0,20.783,80H2.552A2.552,2.552,0,0,0,0,82.552v1.231a.228.228,0,0,0,.228.228H23.107A.228.228,0,0,0,23.335,83.783Z" transform="translate(0 0)"/><path class="b" d="M0,200.228v7.793a2.552,2.552,0,0,0,2.552,2.552h18.23a2.552,2.552,0,0,0,2.552-2.552v-7.793a.228.228,0,0,0-.228-.228H.228A.228.228,0,0,0,0,200.228Zm5.834,5.97a.729.729,0,0,1-.729.729H4.375a.729.729,0,0,1-.729-.729v-.729a.729.729,0,0,1,.729-.729H5.1a.729.729,0,0,1,.729.729Z" transform="translate(0 -114.531)"/></g></g></svg>