<svg xmlns="http://www.w3.org/2000/svg" width="48" height="48" viewBox="0 0 48 48"><defs><style>.a{fill:#00cece;}.b{fill:#fff;}</style></defs><g transform="translate(9394 10739)"><path class="a" d="M24,0A24,24,0,1,1,0,24,24,24,0,0,1,24,0Z" transform="translate(-9394 -10739)"/><g transform="translate(-9410.497 -10726.5)"><g transform="translate(34.799)"><g transform="translate(0)"><path class="b" d="M126.7,0a5.7,5.7,0,1,0,5.7,5.7A5.7,5.7,0,0,0,126.7,0Z" transform="translate(-121)"/></g></g><g transform="translate(31 12.663)"><g transform="translate(0)"><path class="b" d="M47.587,302.456A8.123,8.123,0,0,0,41.763,300H39.231a8.123,8.123,0,0,0-5.823,2.456A8.3,8.3,0,0,0,31,308.315a.633.633,0,0,0,.633.633H49.361a.633.633,0,0,0,.633-.633A8.3,8.3,0,0,0,47.587,302.456Z" transform="translate(-31 -300)"/></g></g></g></g></svg>