<svg xmlns="http://www.w3.org/2000/svg" width="25.019" height="35.952" viewBox="0 0 25.019 35.952"><defs><style>.a{fill:#707070;}</style></defs><path class="a" d="M97.63,31.813v3.54a.6.6,0,0,1-1.2,0v-3.54a4.983,4.983,0,0,0-4.986-4.986,3.679,3.679,0,0,1-3.165-1.777.6.6,0,1,1,1.023-.623,2.489,2.489,0,0,0,2.142,1.2A6.181,6.181,0,0,1,97.63,31.813Zm-10-4.64L85.5,28.828l-3.633-2.813a3.671,3.671,0,0,0,1.374-2.587,8.015,8.015,0,0,0,10.274-7.69c0-.047,0-4.2,0-4.242a.6.6,0,0,0-.6-.561,2.466,2.466,0,0,1-1.564-.289,2.727,2.727,0,0,1-1.133-2.179.6.6,0,0,0-.945-.493,19.311,19.311,0,0,1-8.5,3.371.6.6,0,0,0,.082,1.193A19.715,19.715,0,0,0,85.1,11.5a20.545,20.545,0,0,0,4.065-2.01,3.384,3.384,0,0,0,3.146,2.662v3.587a6.816,6.816,0,1,1-13.632,0v-4.2a.6.6,0,0,0-1.2,0v4.2a8.024,8.024,0,0,0,4.569,7.235v.158a2.5,2.5,0,0,1-2.5,2.5,6.182,6.182,0,0,0-2.212.407l-.387-.308a7.319,7.319,0,0,1-1.534-9.789,8.278,8.278,0,0,0,1.393-4.6V8.09A6.9,6.9,0,0,1,83.7,1.2h3.6a6.9,6.9,0,0,1,6.891,6.891v3.246a8.236,8.236,0,0,0,1.386,4.594,7.32,7.32,0,0,1-.059,8.226.6.6,0,1,0,.987.68,8.517,8.517,0,0,0,.068-9.572,7.041,7.041,0,0,1-1.184-3.928V8.089A8.1,8.1,0,0,0,87.294,0H83.7A8.1,8.1,0,0,0,75.61,8.09v3.245a7.083,7.083,0,0,1-1.192,3.94,8.515,8.515,0,0,0,1.747,11.36,6.168,6.168,0,0,0-2.8,5.179v3.54a.6.6,0,1,0,1.2,0v-3.54a4.983,4.983,0,0,1,4.986-4.986,3.715,3.715,0,0,0,1.166-.187l4.417,3.419a.6.6,0,0,0,.734,0l2.5-1.938a.6.6,0,1,0-.734-.948Z" transform="translate(-72.987 0)"/></svg>