<svg xmlns="http://www.w3.org/2000/svg" width="23.227" height="34.411" viewBox="0 0 23.227 34.411"><defs><style>.a{fill:#00cece;}</style></defs><path class="a" d="M95.308,24.53a2.383,2.383,0,0,1-2.05-1.151.573.573,0,1,0-.98.6,3.54,3.54,0,0,0,1.2,1.2l-.594,2.7-1.433-1.65a.574.574,0,1,0-.836-.787l-1.008,1.16-2.54-2.822a3.5,3.5,0,0,0,.385-1.346,7.679,7.679,0,0,0,9.834-7.36v-4.74a.574.574,0,1,0-1.147,0v4.74a6.524,6.524,0,0,1-13.047,0V10.2A3.238,3.238,0,0,0,86.1,7.648a19.619,19.619,0,0,0,7.874,2.913.574.574,0,0,0,.159-1.136A18.483,18.483,0,0,1,86,6.2a.574.574,0,0,0-.9.472,2.609,2.609,0,0,1-1.084,2.086,2.361,2.361,0,0,1-1.491.277.574.574,0,0,0-.575.507c-.006.055,0-.133,0,4.589A1.184,1.184,0,0,1,81.3,13.08V6.094A1.364,1.364,0,0,1,82.66,4.732a.574.574,0,0,0,.533-.361,5.1,5.1,0,0,1,4.762-3.224h4.918A5.134,5.134,0,0,1,98,6.276v6.8a.574.574,0,0,0,1.147,0v-6.8A6.283,6.283,0,0,0,92.873,0H87.954A6.243,6.243,0,0,0,82.27,3.615a2.513,2.513,0,0,0-2.12,2.479V13.08a2.34,2.34,0,0,0,1.8,2.267,7.682,7.682,0,0,0,4.367,6.641v.151a2.392,2.392,0,0,1-2.4,2.39A5.916,5.916,0,0,0,78,30.45v3.388a.574.574,0,1,0,1.147,0V30.45a4.77,4.77,0,0,1,4.773-4.772,3.58,3.58,0,0,0,.749-.08l.8,3.632a.574.574,0,0,0,.993.253l1.13-1.3-.7,5.585a.574.574,0,0,0,1.138.142l.807-6.455c.036.041.355.4.4.434a.573.573,0,0,0,.808-.051l.344-.4.808,6.467a.574.574,0,0,0,1.138-.142l-.7-5.585,1.13,1.3a.574.574,0,0,0,.993-.253l.8-3.632a3.6,3.6,0,0,0,.749.08,4.77,4.77,0,0,1,4.772,4.773v3.388a.574.574,0,0,0,1.147,0V30.45a5.916,5.916,0,0,0-5.92-5.919Zm-8.964,3.339-.595-2.7a3.56,3.56,0,0,0,.613-.469l1.39,1.545Z" transform="translate(-78 0)"/></svg>