<svg xmlns="http://www.w3.org/2000/svg" width="76.814" height="76.814" viewBox="0 0 76.814 76.814"><defs><style>.a{fill:#00cece;stroke:#15b5b5;stroke-width:2px;}</style></defs><g transform="translate(1 1)"><g transform="translate(26.448)"><path class="a" d="M189.767,0A8.9,8.9,0,0,0,181,8.913a8.767,8.767,0,0,0,17.535,0A8.9,8.9,0,0,0,189.767,0Z" transform="translate(-181)"/></g><g transform="translate(0 17.681)"><path class="a" d="M70.431,140.726a6.7,6.7,0,0,1-4.8,6.256C64.291,136.725,55,128.254,41.962,125.966l-.015-.021A38.836,38.836,0,0,0,21.3,127.993,10.9,10.9,0,0,0,11.105,121H8.913v16.045a21.561,21.561,0,0,0-3.232,5.873H0v17.535H7.875a25.1,25.1,0,0,0,5.422,5.925v11.756H26.448v-5.525a39.3,39.3,0,0,0,17.535,0v5.523H57.134V166.388a22.316,22.316,0,0,0,8.643-14.912,11.1,11.1,0,0,0,9.038-10.75ZM17.681,147.3H13.3v-4.384h4.384Zm27.584-6.674a25.662,25.662,0,0,0-20.086-.015l-1.845-3.977a30.1,30.1,0,0,1,23.751,0Z" transform="translate(0 -121)"/></g></g></svg>