<svg xmlns="http://www.w3.org/2000/svg" width="76.46" height="68.528" viewBox="0 0 76.46 68.528"><defs><style>.a{fill:#00cece;}.b{fill:#fff;}.c{fill:#eefaff;}.d{fill:#01b5b5;}.e{fill:#15b5b5;}</style></defs><g transform="translate(58.497 -29.559)"><g transform="translate(-58.497 30.899)"><path class="a" d="M207.512,63.9,184.724,39.559,161.936,63.9h13.022V94.512h19.533V63.9Z" transform="translate(-132.393 -39.559)"/><circle class="a" cx="22.157" cy="22.157" r="22.157" transform="translate(0 35.857) rotate(-45)"/><circle class="b" cx="16.786" cy="16.786" r="16.786" transform="translate(14.552 19.073)"/><g transform="translate(22.475 27.047)"><ellipse class="c" cx="2.702" cy="2.686" rx="2.702" ry="2.686" transform="translate(0 12.251)"/><ellipse class="c" cx="2.702" cy="2.686" rx="2.702" ry="2.686" transform="translate(12.323)"/></g></g><g transform="translate(-50.657 29.559)"><path class="d" d="M68.258,54.329,45.47,29.983a1.34,1.34,0,0,0-1.957,0L30.178,44.229a23.5,23.5,0,1,0,4.908,42.964H54.258a1.34,1.34,0,0,0,1.34-1.34V80.492a1.34,1.34,0,1,0-2.68,0v4.021H38.874a23.483,23.483,0,0,0-5.961-39.282l11.579-12.37L64.189,53.9H54.258a1.34,1.34,0,0,0-1.34,1.34V68.43a1.34,1.34,0,0,0,2.68,0V56.585H67.28a1.34,1.34,0,0,0,.979-2.256ZM44.315,66.758A20.817,20.817,0,1,1,23.5,45.941,20.841,20.841,0,0,1,44.315,66.758Z" transform="translate(0 -29.559)"/><circle class="e" cx="1.34" cy="1.34" r="1.34" transform="translate(52.918 43.562)"/><path class="e" d="M40.079,189.993a18.126,18.126,0,1,0,18.126-18.126A18.147,18.147,0,0,0,40.079,189.993Zm33.572,0a15.446,15.446,0,1,1-15.446-15.446A15.463,15.463,0,0,1,73.651,189.993Z" transform="translate(-34.707 -152.794)"/><path class="e" d="M106.092,323.972a4.059,4.059,0,0,0-5.71,0,4.015,4.015,0,0,0,0,5.7,4.059,4.059,0,0,0,5.71,0,4.015,4.015,0,0,0,0-5.7Zm-1.89,3.8a1.372,1.372,0,0,1-1.931,0,1.334,1.334,0,0,1,0-1.9,1.372,1.372,0,0,1,1.93,0h0a1.334,1.334,0,0,1,0,1.9Z" transform="translate(-85.901 -283.497)"/><path class="e" d="M195.185,239.436a4.038,4.038,0,0,0,2.855-1.174,4.015,4.015,0,0,0,0-5.7h0a4.059,4.059,0,0,0-5.71,0,4.015,4.015,0,0,0,0,5.7A4.037,4.037,0,0,0,195.185,239.436Zm-.965-4.972a1.373,1.373,0,0,1,1.931,0,1.334,1.334,0,0,1,0,1.9,1.372,1.372,0,0,1-1.931,0,1.334,1.334,0,0,1,0-1.9Z" transform="translate(-165.525 -204.339)"/><path class="e" d="M114.194,244.4a1.34,1.34,0,0,0-1.89,1.9l14.318,14.234a1.34,1.34,0,0,0,1.89-1.9Z" transform="translate(-96.91 -215.268)"/></g></g></svg>