<svg xmlns="http://www.w3.org/2000/svg" width="56.452" height="56.452" viewBox="0 0 56.452 56.452"><defs><style>.a{fill:#00cece;stroke:#15b5b5;stroke-width:1.5px;}</style></defs><g transform="translate(0.75 0.75)"><path class="a" d="M45.139,0H9.813A9.824,9.824,0,0,0,0,9.813V45.139a9.824,9.824,0,0,0,9.813,9.813H45.139a9.824,9.824,0,0,0,9.813-9.813V9.813A9.825,9.825,0,0,0,45.139,0Zm3.454,24.829a1.956,1.956,0,0,1-.214.214L34.641,36.818a1.963,1.963,0,0,1-3.24-1.491V29.439H19.626a1.963,1.963,0,0,1-1.963-1.963V24.365L10.625,31.4l7.038,7.038V35.326a1.963,1.963,0,0,1,1.963-1.963h5.888a1.963,1.963,0,1,1,0,3.925H21.588v5.888a1.963,1.963,0,0,1-1.211,1.813,1.938,1.938,0,0,1-.752.149,1.963,1.963,0,0,1-1.388-.573L6.463,32.791a1.962,1.962,0,0,1,0-2.776h0L18.238,18.238a1.963,1.963,0,0,1,3.35,1.388v5.888H33.364a1.963,1.963,0,0,1,1.963,1.963v3.586l8.759-7.511-8.759-7.507v3.582a1.963,1.963,0,0,1-1.963,1.963H27.476a1.963,1.963,0,0,1,0-3.925H31.4V11.775a1.963,1.963,0,0,1,3.24-1.49L48.379,22.061A1.963,1.963,0,0,1,48.593,24.829Z"/></g></svg>